<svg width="100" height="100" viewBox="0 0 100 100" fill="none" xmlns="http://www.w3.org/2000/svg">
<path fill-rule="evenodd" clip-rule="evenodd" d="M50.1819 54.7512C36.4277 54.7512 19.301 60.4794 5.79138 64.4317C7.78879 73.5962 12.5632 81.7234 19.1888 87.8874L37.7451 65.2074C44.0816 57.4628 55.9231 57.4628 62.2596 65.2074L80.816 87.8873C87.4776 81.6899 92.2679 73.5078 94.2457 64.2821C80.8206 60.4238 63.5771 54.7512 50.1819 54.7512Z" fill="white"/>
<path fill-rule="evenodd" clip-rule="evenodd" d="M33.1929 96.7748L46.6415 63.1537C47.8551 60.1197 52.1499 60.1197 53.3635 63.1537L66.8119 96.7748C61.6151 98.8554 55.9424 100 50.0024 100C44.0624 100 38.3897 98.8554 33.1929 96.7748Z" fill="white"/>
<path fill-rule="evenodd" clip-rule="evenodd" d="M84.1477 25.059C81.9235 22.5034 79.4172 20.1999 76.6772 18.197L59.9676 42.0429C59.3014 42.9936 59.0066 44.0984 59.0579 45.1805C59.1412 47.8564 61.3367 50.0001 64.0328 50.0001H95.0048C94.645 46.5519 93.898 43.2189 92.8079 40.0453H73.6897L84.1477 25.059Z" fill="white"/>
<path fill-rule="evenodd" clip-rule="evenodd" d="M15.8589 25.0571C18.0832 22.5016 20.5897 20.1983 23.3298 18.1956L40.0405 42.043C40.7067 42.9937 41.0014 44.0986 40.9502 45.1806C40.8669 47.8565 38.6714 50.0002 35.9753 50.0002H5C5.35979 46.552 6.10684 43.219 7.19688 40.0454H26.3184L15.8589 25.0571Z" fill="white"/>
<path d="M39.5408 10.7113L50.2602 33.9366L60.8621 10.8598C64.1517 11.6771 67.2992 12.8544 70.2602 14.3474L57.9846 40.7801C56.5849 43.7822 53.5726 45.7013 50.2602 45.7013C46.9479 45.7013 43.9355 43.7822 42.5358 40.7801L30.0928 14.0932C33.0728 12.6332 36.2369 11.4912 39.5408 10.7113Z" fill="#01B68B"/>
<path d="M50.8554 45.6791C53.9208 45.4572 56.6503 43.5946 57.9626 40.7802L74.8893 4.29865L65.8395 0L50.2381 33.9367L50.2314 33.9221L45.4775 44.2478C46.8574 45.1771 48.5068 45.7014 50.2381 45.7014C50.4452 45.7014 50.6511 45.6939 50.8554 45.6791Z" fill="#00FFB3"/>
</svg>
